<svg width="38" height="39" viewBox="0 0 38 39" fill="none" xmlns="http://www.w3.org/2000/svg">
<path d="M7.06078 22.918H29.5095C31.2404 22.918 32.1058 22.918 32.7948 22.5953C33.4017 22.311 33.9117 21.8545 34.2613 21.2827C34.6581 20.6336 34.7536 19.7734 34.9448 18.0531L35.9446 9.05528C36.0029 8.52984 36.0321 8.26711 35.9476 8.06376C35.8734 7.88516 35.7408 7.73702 35.5715 7.64355C35.3788 7.53712 35.1144 7.53712 34.5857 7.53712H6.20629M1.93359 2.41017H4.06715C4.51939 2.41017 4.74551 2.41017 4.92241 2.49618C5.07815 2.57189 5.20721 2.69313 5.29249 2.84385C5.38936 3.01504 5.40347 3.24072 5.43168 3.69207L6.98042 28.472C7.00863 28.9233 7.02274 29.149 7.11961 29.3202C7.20489 29.4709 7.33395 29.5922 7.48969 29.6679C7.66659 29.7539 7.89271 29.7539 8.34495 29.7539H30.9863M11.333 35.7353H11.3501M26.7138 35.7353H26.7309M12.1875 35.7353C12.1875 36.2073 11.8049 36.5898 11.333 36.5898C10.8611 36.5898 10.4785 36.2073 10.4785 35.7353C10.4785 35.2634 10.8611 34.8808 11.333 34.8808C11.8049 34.8808 12.1875 35.2634 12.1875 35.7353ZM27.5683 35.7353C27.5683 36.2073 27.1858 36.5898 26.7138 36.5898C26.2419 36.5898 25.8593 36.2073 25.8593 35.7353C25.8593 35.2634 26.2419 34.8808 26.7138 34.8808C27.1858 34.8808 27.5683 35.2634 27.5683 35.7353Z" stroke="#6D4620" stroke-width="3.41796" stroke-linecap="round" stroke-linejoin="round"/>
</svg>
