<svg width="445" height="261" viewBox="0 0 445 261" fill="none" xmlns="http://www.w3.org/2000/svg">
<path d="M133.446 97.8677C135.107 104.665 134.139 111.107 130.534 117.201C126.951 123.29 120.826 128.534 112.154 132.93C117.446 133.081 121.748 134.394 125.06 136.852C128.368 139.295 130.514 142.514 131.487 146.519C133.034 152.842 132.394 158.816 129.566 164.43C126.732 170.029 121.826 175.014 114.847 179.389C107.862 183.764 99.0135 187.258 88.2947 189.878C84.2895 190.857 81.0656 191.508 78.6229 191.836C79.076 194.107 78.5187 196.024 76.9562 197.581C75.3937 199.165 73.1802 200.305 70.3104 201.008C67.4197 201.711 65.2791 201.55 63.8937 200.524C62.5083 199.519 61.5916 197.758 61.1437 195.237C59.1281 183.852 57.6541 171.779 56.727 159.008C55.8156 146.217 55.5552 133.711 55.9406 121.487C56.0239 119.357 56.8051 117.691 58.2895 116.477C59.7687 115.269 61.8677 114.331 64.5864 113.67C69.4666 112.477 72.2374 113.237 72.8989 115.951C73.1749 117.06 73.2531 118.399 73.1385 119.956C72.5708 126.717 72.5499 135.691 73.0708 146.883C73.6072 158.05 74.6177 168.586 76.1072 178.482C80.0291 177.857 83.1906 177.248 85.5916 176.665C96.7791 173.93 104.597 170.305 109.04 165.784C113.498 161.258 115.112 156.477 113.883 151.441C113.024 147.925 110.8 145.331 107.206 143.665C103.612 141.998 98.2687 141.909 91.1854 143.389C89.5604 143.706 88.3416 143.576 87.5187 143.014C86.7218 142.441 86.1229 141.357 85.7322 139.758C85.1697 137.451 85.1906 135.461 85.7947 133.784C86.3989 132.102 87.9666 130.915 90.5083 130.211C96.1541 128.665 101.081 126.571 105.3 123.925C109.534 121.279 112.633 118.253 114.597 114.857C116.56 111.461 117.092 107.915 116.191 104.227C115.06 99.5968 111.883 96.5031 106.659 94.9458C101.451 93.3625 94.1333 93.7218 84.701 96.0291C76.1489 98.1177 68.1385 101.243 60.6749 105.404C53.201 109.55 47.0864 113.993 42.326 118.732C40.1333 120.862 38.1541 122.144 36.3729 122.576C34.951 122.925 33.7322 122.696 32.727 121.883C31.7218 121.076 31.0343 119.909 30.6645 118.383C30.1749 116.394 30.1749 114.571 30.6645 112.92C31.1489 111.274 32.7687 109.139 35.5239 106.519C41.2999 101.034 48.451 96.1125 56.9666 91.7531C65.477 87.3781 74.4458 84.0395 83.8781 81.7322C98.3468 78.1958 109.732 78.0031 118.034 81.1489C126.352 84.2895 131.493 89.8625 133.446 97.8677Z" stroke="#F6D776" stroke-width="32.419"/>
<path d="M161.977 176.888C156.904 177.435 152.649 176.034 149.212 172.685C145.795 169.336 143.769 164.675 143.118 158.701C142.41 152.143 143.248 145.774 145.634 139.591C148.04 133.409 151.566 128.268 156.217 124.164C160.868 120.065 166.024 117.706 171.68 117.096C173.477 116.899 174.717 117.123 175.389 117.758C176.087 118.388 176.738 119.581 177.352 121.336C179.035 120.81 180.816 120.445 182.696 120.242C186.712 119.805 188.873 121.029 189.186 123.904C189.373 125.623 189.196 129.779 188.654 136.367C187.79 145.982 187.561 152.638 187.962 156.336C188.092 157.555 188.509 158.503 189.206 159.175C189.91 159.847 190.748 160.128 191.727 160.024C193.285 159.857 195.055 158.654 197.04 156.419C199.04 154.159 201.675 150.581 204.946 145.675C205.8 144.43 206.847 143.742 208.087 143.607C209.144 143.492 210.029 143.893 210.733 144.805C211.462 145.721 211.915 147.034 212.102 148.753C212.456 152.029 211.962 154.654 210.618 156.617C207.712 161.159 204.524 165.06 201.055 168.326C197.608 171.591 194.123 173.414 190.608 173.794C187.91 174.086 185.331 173.435 182.873 171.836C180.415 170.242 178.446 167.909 176.962 164.836C173.446 172.169 168.456 176.185 161.977 176.888ZM165.076 164.029C166.873 163.831 168.477 162.586 169.889 160.294C171.295 157.977 172.18 155.018 172.54 151.425L174.623 128.331C171.196 128.784 168.154 130.414 165.509 133.227C162.878 136.039 160.93 139.586 159.654 143.873C158.378 148.154 157.988 152.581 158.482 157.159C158.753 159.695 159.472 161.529 160.623 162.659C161.795 163.763 163.279 164.221 165.076 164.029Z" stroke="#F6D776" stroke-width="32.419"/>
<path d="M269.102 144.419C270.17 144.409 271.019 144.893 271.649 145.878C272.274 146.857 272.597 148.211 272.613 149.94C272.633 153.237 271.868 155.794 270.316 157.617C266.649 162.164 262.925 165.81 259.144 168.55C255.389 171.289 250.915 172.68 245.727 172.716C239.378 172.763 234.248 170.992 230.342 167.399C226.456 163.81 224.493 159.008 224.451 152.998C224.425 149.784 226.055 147.472 229.342 146.06C232.951 144.466 235.534 142.779 237.086 140.998C238.644 139.216 239.409 137.055 239.394 134.498C239.383 133.013 239.06 131.899 238.435 131.159C237.826 130.419 237.071 130.055 236.165 130.06C233.935 130.076 231.493 131.701 228.842 134.935C226.191 138.175 223.727 142.331 221.456 147.414C219.18 152.492 217.409 157.716 216.139 163.071C215.264 166.935 214.227 169.555 213.029 170.93C211.852 172.289 209.988 172.972 207.435 172.992C204.883 173.013 202.998 172.102 201.779 170.258C200.581 168.419 199.753 165.571 199.305 161.711C198.873 157.836 198.633 152.149 198.581 144.654C198.488 131.987 199.691 118.774 202.185 105.008C204.68 91.2372 208.425 79.6642 213.42 70.2788C218.42 60.8986 224.456 56.1798 231.534 56.1278C235.331 56.1017 238.409 57.7111 240.764 60.9507C243.139 64.1694 244.347 68.3726 244.383 73.5549C244.441 81.8778 242.071 90.5288 237.274 99.508C232.493 108.466 224.665 118.956 213.8 130.977C213.586 135.258 213.498 139.659 213.529 144.185C217.415 133.862 221.883 126.362 226.935 121.685C232.008 116.982 236.779 114.617 241.238 114.586C245.342 114.555 248.654 115.94 251.191 118.737C253.722 121.513 255.003 124.961 255.034 129.081C255.066 133.602 253.941 137.774 251.654 141.586C249.389 145.383 245.467 148.779 239.878 151.774C240.238 154.003 241.264 155.794 242.961 157.149C244.659 158.482 246.696 159.143 249.066 159.123C251.618 159.107 254.086 158.102 256.461 156.117C258.842 154.107 261.941 150.789 265.769 146.159C266.764 145.008 267.878 144.425 269.102 144.419ZM229.029 68.3621C227.56 68.3726 225.925 70.5028 224.128 74.758C222.352 79.0132 220.644 84.7528 219.003 91.9819C217.368 99.1903 216.05 107.039 215.045 115.529C220.107 109.482 224.279 102.909 227.566 95.8101C230.852 88.6903 232.472 82.258 232.43 76.508C232.415 73.8726 232.107 71.8569 231.514 70.4507C230.941 69.0496 230.113 68.3517 229.029 68.3621Z" stroke="#F6D776" stroke-width="32.419"/>
<path d="M314.592 150.227C315.675 150.326 316.472 150.888 316.988 151.925C317.519 152.961 317.712 154.342 317.556 156.06C317.264 159.347 316.259 161.821 314.54 163.482C311.186 166.899 306.602 169.92 300.779 172.555C294.977 175.164 288.91 176.19 282.587 175.628C273.972 174.868 267.493 171.94 263.144 166.852C258.811 161.769 257.009 155.159 257.727 147.029C258.233 141.362 259.889 136.201 262.701 131.55C265.519 126.873 269.165 123.295 273.644 120.805C278.128 118.3 283.029 117.279 288.358 117.753C293.102 118.175 296.779 119.93 299.389 123.029C302.024 126.107 303.123 130.071 302.696 134.914C302.191 140.56 299.727 145.237 295.306 148.94C290.899 152.649 283.748 155.253 273.847 156.753C275.571 160.722 279.3 162.961 285.024 163.467C288.727 163.795 293.05 162.878 297.983 160.711C302.936 158.55 307.321 155.529 311.139 151.649C312.222 150.592 313.373 150.123 314.592 150.227ZM285.181 129.638C282.16 129.373 279.441 130.904 277.024 134.243C274.628 137.581 273.212 141.753 272.764 146.758L272.743 146.998C277.67 146.289 281.628 144.904 284.613 142.847C287.623 140.795 289.259 138.253 289.529 135.232C289.665 133.67 289.347 132.378 288.571 131.362C287.795 130.347 286.665 129.769 285.181 129.638Z" stroke="#F6D776" stroke-width="32.419"/>
<path d="M311.55 179.451C308.488 178.888 306.618 176.883 305.941 173.425C305.29 169.956 305.623 164.649 306.93 157.513C308.863 146.998 312.191 137.274 316.915 128.352C318.076 126.133 319.587 124.633 321.446 123.852C323.311 123.05 325.748 122.925 328.753 123.477C330.373 123.774 331.462 124.185 332.019 124.722C332.597 125.232 332.785 126.065 332.571 127.211C332.337 128.498 331.201 131.295 329.165 135.597C327.758 138.69 326.587 141.409 325.644 143.753C324.722 146.097 323.769 149.019 322.779 152.513C326.727 146.045 330.758 140.93 334.883 137.17C339.008 133.409 342.842 130.894 346.383 129.623C349.93 128.336 353.04 127.935 355.706 128.425C360.967 129.388 363.113 132.508 362.144 137.789C361.951 138.836 361.118 141.321 359.644 145.237C358.42 148.347 357.732 150.305 357.581 151.112C357.061 153.961 357.805 155.571 359.826 155.94C362.097 156.357 365.342 155.102 369.561 152.18C370.8 151.321 371.993 150.998 373.139 151.211C374.186 151.404 374.92 152.019 375.342 153.055C375.785 154.097 375.868 155.388 375.581 156.93C375.029 159.935 373.79 162.144 371.857 163.545C369.17 165.482 366.154 167.003 362.805 168.107C359.451 169.206 356.076 169.446 352.68 168.821C348.389 168.034 345.326 166.336 343.498 163.732C341.686 161.133 341.118 157.977 341.8 154.258C342.024 153.05 342.363 151.857 342.826 150.675C343.285 149.081 343.566 147.998 343.67 147.425C343.904 146.144 343.576 145.42 342.686 145.253C341.482 145.034 339.633 146.092 337.139 148.435C334.665 150.779 332.05 154.008 329.29 158.123C326.535 162.217 324.092 166.623 321.962 171.336C320.373 174.972 318.863 177.352 317.43 178.477C316.019 179.586 314.061 179.914 311.55 179.451Z" stroke="#F6D776" stroke-width="32.419"/>
<path d="M426.576 178.06C427.602 178.352 428.264 179.076 428.561 180.227C428.878 181.383 428.821 182.717 428.389 184.222C427.873 186.04 427.181 187.389 426.321 188.274C425.488 189.144 424.368 189.805 422.962 190.258L395.774 199.045C388.092 214.576 380.477 226.337 372.931 234.316C365.373 242.316 357.837 245.243 350.316 243.097C346.28 241.941 343.347 239.753 341.53 236.54C339.712 233.321 339.378 229.691 340.535 225.654C341.602 221.925 343.54 218.357 346.347 214.962C349.154 211.581 353.587 208.04 359.644 204.337C365.717 200.633 373.915 196.748 384.238 192.675L385.394 190.055C386.774 187.274 388.602 183.248 390.878 177.988C387.665 183.232 384.201 186.936 380.493 189.097C376.806 191.243 373.378 191.863 370.207 190.956C366.654 189.936 364.212 187.472 362.884 183.561C361.582 179.633 361.628 175.217 363.035 170.305C364.733 164.352 366.691 159.019 368.894 154.295C371.102 149.576 373.904 144.712 377.3 139.701C378.774 137.55 380.363 136.165 382.066 135.545C383.795 134.909 386.201 135.034 389.295 135.92C391.035 136.415 392.165 137.04 392.681 137.795C393.196 138.55 393.295 139.477 392.983 140.576C392.8 141.217 391.753 143.227 389.847 146.613C388.212 149.321 386.816 151.8 385.654 154.04C384.087 157.102 382.639 160.055 381.306 162.894C379.993 165.717 379.071 168.076 378.529 169.972C377.665 172.982 378.066 174.727 379.727 175.206C380.925 175.545 382.753 174.784 385.212 172.915C387.67 171.045 390.592 167.982 393.983 163.727C397.394 159.472 401.05 154.102 404.957 147.607C406.274 145.415 407.727 143.988 409.316 143.337C410.925 142.665 413.04 142.706 415.649 143.451C417.462 143.972 418.66 144.576 419.238 145.264C419.821 145.93 419.951 146.826 419.634 147.946C419.066 149.915 416.097 156.425 410.722 167.477L402.155 185.722C409.576 182.868 416.717 180.373 423.576 178.238C424.785 177.894 425.785 177.831 426.576 178.06ZM354.92 231.93C356.894 232.493 359.764 230.826 363.53 226.925C367.295 223.05 371.931 216.118 377.441 206.128C369.878 209.55 364.118 212.982 360.165 216.43C356.233 219.883 353.811 223.196 352.905 226.368C352.524 227.701 352.462 228.873 352.712 229.889C352.988 230.904 353.722 231.587 354.92 231.93Z" stroke="#F6D776" stroke-width="32.419"/>
<path d="M133.451 97.8464C135.103 104.654 134.129 111.107 130.535 117.201C126.936 123.284 120.806 128.534 112.139 132.951C117.431 133.091 121.728 134.388 125.035 136.846C128.337 139.294 130.483 142.513 131.472 146.513C133.014 152.836 132.368 158.8 129.535 164.409C126.712 170.024 121.811 175.013 114.826 179.388C107.853 183.763 99.014 187.258 88.3057 189.867C84.3057 190.857 81.0765 191.513 78.6182 191.846C79.0869 194.096 78.54 196.013 76.9723 197.596C75.3994 199.169 73.1807 200.305 70.3057 201.013C67.415 201.706 65.2692 201.544 63.8682 200.534C62.4775 199.524 61.5661 197.753 61.139 195.221C59.1234 183.862 57.6598 171.794 56.7432 159.013C55.8265 146.221 55.5661 133.711 55.9723 121.471C56.0244 119.346 56.7952 117.68 58.2848 116.471C59.7692 115.263 61.8734 114.336 64.5973 113.68C69.4723 112.487 72.2432 113.242 72.9098 115.951C73.1859 117.076 73.264 118.419 73.139 119.971C72.5817 126.711 72.5661 135.675 73.0973 146.867C73.6234 158.05 74.6286 168.586 76.1182 178.471C80.0192 177.862 83.1702 177.263 85.5765 176.68C96.7692 173.945 104.587 170.32 109.035 165.805C113.493 161.279 115.103 156.487 113.868 151.43C113.004 147.93 110.785 145.346 107.201 143.68C103.618 142.013 98.2744 141.925 91.1807 143.409C89.5557 143.716 88.3317 143.591 87.514 143.034C86.7067 142.466 86.1025 141.378 85.7015 139.763C85.1442 137.445 85.1702 135.451 85.7848 133.784C86.3942 132.117 87.9723 130.93 90.514 130.221C96.1494 128.68 101.082 126.591 105.306 123.951C109.524 121.3 112.618 118.274 114.576 114.867C116.545 111.466 117.087 107.925 116.201 104.242C115.061 99.5912 111.879 96.4871 106.66 94.9298C101.451 93.3777 94.1286 93.7423 84.7015 96.0339C76.1442 98.1329 68.1286 101.258 60.6598 105.409C53.2015 109.55 47.0869 113.987 42.3057 118.721C40.1286 120.878 38.1546 122.169 36.389 122.596C34.9463 122.945 33.7327 122.711 32.7432 121.888C31.7432 121.07 31.0557 119.909 30.6807 118.409C30.1963 116.399 30.1963 114.57 30.6807 112.93C31.1546 111.279 32.764 109.149 35.514 106.534C41.2952 101.05 48.4359 96.1277 56.9515 91.7631C65.4619 87.3881 74.4359 84.0496 83.8682 81.7423C98.3369 78.2006 109.728 78.0027 118.035 81.1381C126.353 84.2787 131.493 89.8464 133.451 97.8464Z" fill="#6D4620"/>
<path d="M161.993 176.911C156.91 177.468 152.649 176.067 149.222 172.702C145.806 169.343 143.769 164.671 143.118 158.681C142.41 152.14 143.248 145.78 145.639 139.598C148.04 133.421 151.566 128.28 156.222 124.181C160.873 120.072 166.024 117.713 171.681 117.098C173.483 116.905 174.728 117.129 175.41 117.765C176.103 118.39 176.748 119.577 177.347 121.327C179.024 120.817 180.811 120.452 182.702 120.244C186.712 119.817 188.873 121.036 189.181 123.911C189.373 125.619 189.207 129.775 188.681 136.369C187.79 145.984 187.545 152.635 187.952 156.327C188.087 157.551 188.504 158.504 189.202 159.181C189.894 159.864 190.728 160.15 191.702 160.036C193.269 159.869 195.045 158.661 197.035 156.411C199.035 154.161 201.67 150.577 204.952 145.661C205.811 144.426 206.853 143.739 208.077 143.598C209.144 143.489 210.035 143.89 210.743 144.806C211.462 145.713 211.92 147.025 212.118 148.744C212.462 152.025 211.957 154.64 210.597 156.598C207.691 161.155 204.514 165.072 201.056 168.348C197.608 171.614 194.123 173.442 190.597 173.827C187.889 174.119 185.311 173.468 182.868 171.869C180.42 170.26 178.457 167.926 176.972 164.869C173.441 172.202 168.452 176.218 161.993 176.911ZM165.077 164.015C166.879 163.822 168.483 162.577 169.889 160.286C171.306 157.984 172.181 155.03 172.514 151.431L174.618 128.327C171.202 128.786 168.17 130.426 165.535 133.244C162.894 136.051 160.936 139.593 159.66 143.869C158.379 148.135 157.993 152.556 158.493 157.14C158.769 159.681 159.483 161.515 160.639 162.64C161.806 163.754 163.285 164.213 165.077 164.015Z" fill="#6D4620"/>
<path d="M269.12 144.396C270.188 144.396 271.037 144.891 271.662 145.875C272.287 146.849 272.599 148.203 272.599 149.938C272.625 153.229 271.86 155.787 270.307 157.604C266.641 162.162 262.917 165.813 259.141 168.563C255.375 171.313 250.901 172.709 245.724 172.75C239.375 172.792 234.25 171.016 230.349 167.417C226.458 163.823 224.495 159.016 224.453 153C224.438 149.792 226.068 147.474 229.349 146.042C232.958 144.459 235.537 142.782 237.078 141C238.63 139.224 239.401 137.058 239.391 134.5C239.375 133.016 239.057 131.907 238.432 131.167C237.818 130.433 237.063 130.073 236.162 130.084C233.938 130.099 231.5 131.724 228.849 134.959C226.193 138.183 223.729 142.334 221.453 147.417C219.188 152.49 217.417 157.703 216.141 163.063C215.266 166.938 214.229 169.563 213.037 170.938C211.854 172.302 209.985 172.99 207.432 173.021C204.875 173.032 202.995 172.12 201.787 170.271C200.578 168.427 199.75 165.573 199.307 161.709C198.875 157.849 198.63 152.167 198.578 144.667C198.495 131.99 199.703 118.766 202.203 105C204.703 91.2243 208.443 79.6461 213.432 70.2711C218.432 60.8961 224.464 56.1826 231.537 56.1253C235.328 56.0993 238.401 57.7034 240.766 60.9378C243.141 64.1774 244.349 68.3857 244.391 73.5628C244.443 81.8857 242.078 90.5316 237.287 99.5003C232.505 108.474 224.682 118.959 213.807 130.959C213.583 135.25 213.485 139.662 213.516 144.188C217.401 133.854 221.88 126.349 226.953 121.667C232.021 116.99 236.776 114.636 241.224 114.604C245.333 114.578 248.651 115.953 251.182 118.729C253.724 121.511 255.005 124.953 255.037 129.063C255.078 133.594 253.953 137.761 251.662 141.563C249.38 145.37 245.458 148.771 239.891 151.771C240.235 153.995 241.255 155.787 242.953 157.146C244.662 158.495 246.708 159.157 249.099 159.125C251.641 159.115 254.089 158.115 256.453 156.125C258.828 154.125 261.938 150.808 265.787 146.167C266.771 145 267.88 144.412 269.12 144.396ZM229.037 68.3753C227.547 68.3909 225.917 70.5211 224.141 74.7711C222.36 79.0211 220.651 84.7607 219.016 91.9795C217.375 99.1878 216.047 107.037 215.037 115.521C220.104 109.469 224.276 102.891 227.557 95.792C230.849 88.6982 232.474 82.2659 232.432 76.5003C232.417 73.8649 232.11 71.8493 231.516 70.4586C230.932 69.0576 230.104 68.3649 229.037 68.3753Z" fill="#6D4620"/>
<path d="M314.611 150.217C315.663 150.316 316.455 150.884 316.986 151.925C317.512 152.956 317.699 154.331 317.548 156.05C317.257 159.331 316.257 161.811 314.548 163.488C311.173 166.904 306.574 169.925 300.757 172.55C294.949 175.175 288.892 176.206 282.59 175.654C273.975 174.889 267.496 171.962 263.153 166.863C258.819 161.769 257.012 155.154 257.736 147.029C258.236 141.363 259.887 136.206 262.694 131.55C265.496 126.884 269.137 123.311 273.611 120.821C278.095 118.321 283.007 117.311 288.34 117.779C293.1 118.196 296.788 119.946 299.403 123.029C302.028 126.113 303.121 130.071 302.694 134.904C302.194 140.561 299.725 145.238 295.298 148.946C290.882 152.644 283.736 155.248 273.861 156.759C275.569 160.717 279.298 162.956 285.048 163.467C288.741 163.79 293.054 162.873 297.986 160.717C302.929 158.55 307.309 155.529 311.132 151.654C312.225 150.587 313.387 150.107 314.611 150.217ZM285.194 129.634C282.153 129.357 279.429 130.894 277.028 134.238C274.621 137.587 273.199 141.759 272.757 146.759L272.736 147.009C277.679 146.29 281.642 144.904 284.632 142.863C287.616 140.811 289.246 138.259 289.528 135.217C289.663 133.665 289.345 132.378 288.569 131.363C287.788 130.337 286.663 129.759 285.194 129.634Z" fill="#6D4620"/>
<path d="M311.55 179.479C308.477 178.922 306.613 176.901 305.946 173.417C305.279 169.933 305.597 164.636 306.904 157.521C308.847 146.995 312.196 137.271 316.946 128.354C318.097 126.146 319.602 124.646 321.467 123.854C323.326 123.063 325.748 122.938 328.738 123.479C330.363 123.787 331.456 124.203 332.029 124.729C332.613 125.245 332.8 126.073 332.592 127.209C332.352 128.5 331.206 131.308 329.154 135.625C327.748 138.709 326.581 141.417 325.654 143.75C324.722 146.084 323.769 149.011 322.8 152.521C326.727 146.037 330.758 140.917 334.883 137.167C339.008 133.407 342.842 130.886 346.383 129.604C349.935 128.328 353.04 127.938 355.696 128.438C360.972 129.396 363.123 132.511 362.154 137.771C361.956 138.828 361.123 141.313 359.654 145.229C358.415 148.344 357.722 150.308 357.571 151.125C357.055 153.959 357.805 155.563 359.821 155.938C362.097 156.354 365.342 155.104 369.55 152.188C370.8 151.328 371.993 151 373.133 151.209C374.175 151.407 374.909 152.032 375.342 153.084C375.784 154.125 375.868 155.412 375.592 156.938C375.034 159.938 373.8 162.136 371.883 163.521C369.185 165.469 366.165 166.995 362.821 168.104C359.472 169.203 356.097 169.438 352.696 168.813C348.404 168.037 345.347 166.349 343.529 163.75C341.706 161.157 341.139 157.99 341.821 154.25C342.04 153.042 342.383 151.849 342.842 150.667C343.284 149.084 343.56 148.011 343.675 147.438C343.909 146.146 343.581 145.417 342.696 145.25C341.488 145.032 339.639 146.099 337.154 148.459C334.665 150.808 332.04 154.032 329.279 158.125C326.514 162.209 324.071 166.604 321.946 171.313C320.373 174.979 318.873 177.365 317.446 178.479C316.029 179.604 314.06 179.938 311.55 179.479Z" fill="#6D4620"/>
<path d="M426.574 178.036C427.6 178.343 428.266 179.078 428.574 180.244C428.891 181.4 428.834 182.723 428.407 184.223C427.891 186.041 427.209 187.38 426.365 188.244C425.516 189.119 424.376 189.786 422.949 190.244L395.782 199.036C388.084 214.562 380.459 226.317 372.907 234.307C365.365 242.307 357.834 245.229 350.324 243.078C346.282 241.921 343.355 239.734 341.532 236.515C339.699 233.291 339.365 229.661 340.532 225.619C341.589 221.911 343.527 218.354 346.345 214.953C349.152 211.562 353.584 208.015 359.657 204.307C365.725 200.609 373.918 196.729 384.24 192.661L385.386 190.036C386.772 187.27 388.605 183.26 390.886 177.994C387.662 183.244 384.204 186.942 380.511 189.098C376.813 191.249 373.386 191.874 370.22 190.973C366.647 189.958 364.204 187.484 362.886 183.557C361.579 179.63 361.626 175.203 363.032 170.286C364.725 164.343 366.668 159.015 368.865 154.307C371.074 149.588 373.876 144.718 377.282 139.703C378.766 137.552 380.365 136.161 382.074 135.536C383.793 134.911 386.199 135.046 389.282 135.932C391.032 136.432 392.162 137.057 392.678 137.807C393.188 138.546 393.287 139.468 392.97 140.578C392.803 141.203 391.751 143.218 389.824 146.619C388.199 149.317 386.803 151.781 385.636 154.015C384.095 157.088 382.662 160.036 381.345 162.869C380.022 165.703 379.084 168.072 378.532 169.973C377.668 172.989 378.063 174.734 379.72 175.203C380.897 175.536 382.72 174.775 385.178 172.911C387.647 171.036 390.584 167.973 393.99 163.723C397.391 159.473 401.053 154.109 404.97 147.619C406.272 145.411 407.725 143.984 409.324 143.328C410.933 142.677 413.037 142.718 415.636 143.453C417.47 143.984 418.668 144.588 419.24 145.265C419.824 145.947 419.954 146.838 419.636 147.932C419.063 149.921 416.095 156.432 410.72 167.473L402.157 185.703C409.574 182.869 416.704 180.38 423.553 178.223C424.761 177.88 425.766 177.817 426.574 178.036ZM354.907 231.932C356.876 232.484 359.746 230.828 363.511 226.953C367.287 223.078 371.933 216.14 377.449 206.14C369.876 209.541 364.121 212.963 360.178 216.411C356.23 219.869 353.808 223.182 352.907 226.348C352.532 227.692 352.48 228.874 352.74 229.89C353.001 230.9 353.725 231.583 354.907 231.932Z" fill="#6D4620"/>
<path d="M73.8471 85.4038C74.5398 84.8257 75.144 84.4559 75.67 84.284C76.5033 84.0132 77.2273 84.1277 77.8523 84.6173C78.4773 85.1069 78.9513 85.8517 79.2742 86.8517C79.7846 88.4246 79.8315 89.883 79.42 91.2319C79.0242 92.5757 78.0554 93.9923 76.5138 95.4819C73.8888 97.9402 70.2533 100.404 65.6075 102.867C60.9565 105.32 56.2481 107.315 51.4773 108.857C44.8731 110.998 39.1023 112.039 34.17 111.998C29.2325 111.94 25.2534 110.951 22.2273 109.034C19.2065 107.112 17.1596 104.503 16.0919 101.201C14.6336 96.6954 14.8471 92.3881 16.7221 88.2736C18.6127 84.159 22.1596 80.4819 27.3627 77.2423C23.9773 77.3517 21.0919 76.5444 18.7117 74.8257C16.3367 73.1069 14.6961 70.8569 13.795 68.0809C12.5763 64.31 12.6857 60.5809 14.1284 56.909C15.5763 53.2163 18.0659 49.9403 21.5919 47.0757C25.1232 44.1903 29.3055 41.9715 34.1284 40.409C40.6284 38.3101 45.9513 38.133 50.0919 39.8882C54.2534 41.6434 57.0502 44.7424 58.4877 49.1955C59.4929 52.2944 59.7377 54.9819 59.2325 57.2684C58.7273 59.5392 57.42 61.0132 55.3211 61.6903C53.8627 62.1642 52.6075 62.2111 51.5502 61.8309C50.5034 61.435 49.769 60.5809 49.3471 59.2788C49.0554 58.383 48.8731 57.3673 48.7898 56.2371C48.4981 54.4194 48.2534 53.2007 48.0502 52.5757C47.4409 50.6903 46.2325 49.3934 44.4357 48.6746C42.6284 47.9455 40.0763 48.1121 36.7742 49.1798C32.3211 50.6225 29.0607 52.7215 27.0034 55.4819C24.9357 58.2267 24.42 61.1955 25.4565 64.3986C26.2534 66.8673 27.92 68.5757 30.4617 69.5184C32.9982 70.4507 36.5659 70.2632 41.1752 68.9611C42.3471 68.6382 43.2429 68.6382 43.8679 68.9559C44.4929 69.2632 44.9825 69.9767 45.3419 71.0861C46.4617 74.5444 45.4565 76.8048 42.3211 77.8725C38.0034 79.383 34.5971 81.1486 32.1023 83.1746C29.6023 85.1954 27.9825 87.2684 27.2429 89.3882C26.5138 91.5027 26.4617 93.534 27.0919 95.4819C28.144 98.7319 30.4513 100.69 34.019 101.362C37.5971 102.029 42.6856 101.289 49.2898 99.1538C53.6388 97.7475 58.0763 95.7475 62.5971 93.159C67.1127 90.5652 70.8627 87.9819 73.8471 85.4038Z" stroke="#F6D776" stroke-width="21.6904"/>
<path d="M73.7118 56.576C71.4722 57.1646 69.6597 57.0865 68.2639 56.3417C66.8732 55.5969 65.9305 54.2948 65.441 52.4354C64.9462 50.5656 65.2587 48.8104 66.3889 47.1802C67.5295 45.5448 69.191 44.4354 71.3732 43.8573C73.3524 43.3365 75.0764 43.3938 76.5503 44.0344C78.0243 44.6594 78.9982 45.8573 79.4618 47.6281C80.0243 49.7479 79.7743 51.6177 78.717 53.2479C77.6649 54.8625 75.9982 55.9719 73.7118 56.576ZM84.3993 99.6333C80.9409 100.55 78.0972 99.9927 75.8784 97.9615C73.6753 95.9302 72.0347 92.8833 70.9618 88.826C70.3316 86.4354 69.8264 83.2792 69.4409 79.3625C69.0607 75.4406 68.9201 71.7375 69.0139 68.2479C69.0451 66.4198 69.368 65.0812 69.993 64.2323C70.6284 63.3677 71.8264 62.7063 73.5816 62.2427C76.2951 61.524 77.8993 62.076 78.3784 63.8938C78.7274 65.2219 79.0347 68.4458 79.3055 73.5604C79.5764 79.7479 79.9878 83.8833 80.5347 85.9667C80.9566 87.5656 81.4982 88.7375 82.1545 89.4823C82.8055 90.2115 83.6336 90.4458 84.6336 90.1802C85.5972 89.9302 86.618 88.951 87.6961 87.2427C88.7847 85.524 90.1545 82.9094 91.8003 79.399C92.243 78.4927 92.8576 77.9302 93.6545 77.7219C94.3524 77.5344 94.9826 77.7115 95.5451 78.2427C96.1128 78.774 96.5503 79.6021 96.842 80.7167C97.4045 82.8521 97.3368 84.6333 96.6284 86.0761C93.0659 93.899 88.9878 98.4198 84.3993 99.6333Z" stroke="#F6D776" stroke-width="21.6904"/>
<path d="M124.556 64.201C124.701 64.1125 124.967 64.0239 125.347 63.9406C126.16 63.7583 126.837 63.8885 127.378 64.3312C127.931 64.7739 128.311 65.4458 128.509 66.3521C128.884 68.0187 128.852 69.3989 128.425 70.4875C127.993 71.576 127.17 72.4771 125.967 73.1854C123.681 74.55 121.139 75.55 118.347 76.175C115.983 76.701 113.681 76.8781 111.436 76.7062C110.441 79.576 109.3 82.5656 108.03 85.675C106.561 89.2167 105.17 91.7219 103.863 93.201C102.566 94.675 100.92 95.6386 98.9254 96.0865C96.717 96.5761 94.7952 96.1073 93.1493 94.6698C91.5035 93.2323 90.1024 90.6958 88.9462 87.0708C86.6181 79.6802 84.8264 73.1646 83.5608 67.5188L82.9306 64.7063C82.5868 62.9198 82.7899 61.5813 83.5399 60.6802C84.3003 59.7688 85.592 59.1073 87.4201 58.701C88.8212 58.3833 89.9306 58.4615 90.7378 58.9302C91.5451 59.3937 92.1076 60.3573 92.4358 61.8156C93.8212 67.9979 95.9983 75.951 98.9722 85.675C101.118 80.1646 102.675 75.8052 103.655 72.5969C102.503 71.2115 101.691 69.4458 101.207 67.2948C100.8 65.4719 100.8 63.6073 101.217 61.7114C101.649 59.8104 102.436 58.1646 103.587 56.7792C104.753 55.3885 106.217 54.4927 107.993 54.0969C109.55 53.7479 110.936 54.0187 112.139 54.9041C113.358 55.7896 114.201 57.2844 114.67 59.3833C115.212 61.8 115.191 64.7114 114.602 68.1229C116.613 67.5604 119.238 66.5448 122.477 65.076L124.556 64.201Z" stroke="#F6D776" stroke-width="21.6904"/>
<path d="M123.144 69.732C121.852 70.0757 120.738 69.8882 119.795 69.1643C118.858 68.4247 118.259 67.2632 117.988 65.6851C117.733 64.2163 117.91 63.0653 118.519 62.2372C119.139 61.4091 120.149 60.8101 121.545 60.4455L137.946 55.9611C139.29 55.607 140.394 55.7632 141.264 56.4351C142.123 57.0914 142.691 58.1799 142.951 59.7007C143.456 62.633 142.321 64.4716 139.545 65.2268L123.144 69.732Z" stroke="#F6D776" stroke-width="21.6904"/>
<path d="M225.899 59.4717C226.607 59.4092 227.201 59.6852 227.68 60.2998C228.154 60.9196 228.446 61.805 228.555 62.9561C228.753 65.0967 228.394 66.8467 227.467 68.2009C225.123 71.6227 222.686 74.3207 220.159 76.2998C217.639 78.279 214.55 79.4405 210.878 79.7842C207.305 80.1175 204.18 79.4404 201.514 77.7582C198.842 76.0759 196.165 73.0134 193.477 68.5602C191.321 64.9977 189.639 62.3727 188.43 60.6852C187.217 59.0029 186.066 57.8259 184.977 57.1592C183.889 56.4769 182.597 56.1279 181.113 56.1019C180.993 57.2738 180.701 60.9561 180.238 67.1488C180.05 69.9196 179.935 71.6123 179.883 72.2269C179.644 75.6227 178.79 78.2894 177.305 80.2269C175.826 82.1592 173.415 83.2842 170.066 83.5967C166.394 83.9404 163.05 83.1644 160.019 81.2738C156.993 79.3675 154.529 76.555 152.628 72.8259C150.727 69.1019 149.545 64.7738 149.081 59.8467C148.222 50.6331 149.087 42.529 151.675 35.5342C154.264 28.5394 158.284 23.0029 163.738 18.9248C169.191 14.8519 175.701 12.4613 183.269 11.7529C188.529 11.2581 193.014 11.6435 196.727 12.904C200.451 14.1488 203.305 16.0915 205.295 18.7321C207.284 21.3675 208.441 24.4404 208.769 27.9456C209.055 31.029 208.607 34.1019 207.425 37.1696C206.253 40.2373 204.31 43.0342 201.602 45.555C198.904 48.0759 195.529 50.0811 191.467 51.5706C194.17 52.0342 196.305 52.9925 197.873 54.4561C199.456 55.9144 201.102 58.1123 202.805 61.0446C204.654 64.1957 206.399 66.4717 208.045 67.8675C209.701 69.2529 211.519 69.8571 213.498 69.6696C215.253 69.5081 216.868 68.7634 218.337 67.4352C219.821 66.1071 221.639 63.904 223.795 60.8259C224.383 60.0029 225.081 59.5498 225.899 59.4717ZM169.732 57.0863C167.873 57.2581 166.56 56.9456 165.795 56.1384C165.029 55.3154 164.597 54.3571 164.493 53.2581C164.368 51.9352 164.696 50.8519 165.467 50.0081C166.253 49.1644 167.196 48.6904 168.29 48.5915L170.342 48.3988C170.722 42.93 171.113 38.2217 171.514 34.2686C171.889 30.6279 174.024 28.6227 177.92 28.2581C181.055 27.9665 182.753 29.2165 183.014 32.0186C183.071 32.6175 183.081 33.0915 183.045 33.43L181.868 47.3206C184.81 46.8675 187.446 45.8988 189.764 44.4144C192.081 42.93 193.863 40.9925 195.097 38.6071C196.347 36.2217 196.837 33.6019 196.571 30.7477C196.248 27.2946 194.816 24.6956 192.274 22.9456C189.732 21.1852 186.185 20.5185 181.633 20.9404C176.264 21.4456 171.685 23.2165 167.904 26.2581C164.123 29.2998 161.352 33.5394 159.592 38.9873C157.831 44.4352 157.305 50.9144 158.008 58.4248C158.337 61.9352 158.972 64.9196 159.92 67.3831C160.863 69.8363 161.915 71.6436 163.081 72.7998C164.243 73.9613 165.29 74.4977 166.227 74.4144C166.935 74.3467 167.488 73.9352 167.878 73.1852C168.279 72.43 168.545 71.2425 168.68 69.6227L169.732 57.0863Z" stroke="#F6D776" stroke-width="21.6904"/>
<path d="M256.394 60.576C257.123 60.5656 257.691 60.8885 258.107 61.5395C258.529 62.1906 258.753 63.0968 258.774 64.2531C258.805 66.4562 258.305 68.1749 257.274 69.3989C255.284 71.9041 252.441 74.2322 248.748 76.3885C245.066 78.5291 241.102 79.6333 236.852 79.6958C231.071 79.7843 226.555 78.2843 223.305 75.201C220.071 72.1176 218.415 67.8416 218.331 62.3833C218.274 58.576 219.019 55.0291 220.571 51.7374C222.123 48.4301 224.3 45.7947 227.107 43.8312C229.915 41.852 233.107 40.8364 236.685 40.7791C239.873 40.7322 242.441 41.6489 244.394 43.5291C246.363 45.3937 247.368 47.9562 247.415 51.2114C247.472 55.0031 246.159 58.2843 243.472 61.0551C240.795 63.826 236.217 66.0551 229.732 67.7374C231.154 70.2583 233.79 71.4926 237.633 71.4301C240.123 71.3937 242.935 70.4822 246.066 68.701C249.217 66.9197 251.925 64.6072 254.196 61.7583C254.842 60.9822 255.576 60.5864 256.394 60.576ZM235.399 48.9093C233.368 48.9406 231.665 50.1489 230.29 52.5395C228.925 54.9249 228.269 57.7999 228.321 61.1645L228.321 61.326C231.55 60.5083 234.086 59.3156 235.935 57.7374C237.795 56.1645 238.706 54.3624 238.675 52.3312C238.659 51.2791 238.357 50.4458 237.774 49.8208C237.185 49.201 236.394 48.8937 235.399 48.9093Z" stroke="#F6D776" stroke-width="21.6904"/>
<path d="M293.102 61.9194C293.816 61.9454 294.362 62.2944 294.743 62.9662C295.139 63.6381 295.316 64.5496 295.274 65.7058C295.206 67.7371 294.623 69.4246 293.529 70.7735C290.831 74.0496 287.534 76.5808 283.639 78.3673C279.758 80.159 275.415 80.9767 270.618 80.81C266.883 80.685 263.654 80.0131 260.935 78.8048C258.222 77.5808 256.165 75.9715 254.764 73.9715C253.378 71.961 252.727 69.7371 252.81 67.3048C252.935 63.6746 254.503 60.5079 257.519 57.7944C260.529 55.086 264.81 52.534 270.352 50.1433L256.795 50.0027C255.581 50.0131 254.675 49.56 254.076 48.6381C253.477 47.7006 253.196 46.6017 253.237 45.336C253.284 44.0183 253.639 42.8621 254.305 41.8621C254.972 40.8621 255.857 40.3829 256.961 40.4194C259.487 40.5027 262.868 40.8152 267.102 41.3517C267.972 41.435 269.576 41.5965 271.909 41.836C274.243 42.0808 276.206 42.2267 277.81 42.2788C278.357 42.2996 279.415 42.1225 280.977 41.7423C281.248 41.7006 281.779 41.5808 282.581 41.3933C283.394 41.1954 284.081 41.1017 284.628 41.1225C285.503 41.1537 286.217 41.56 286.769 42.3465C287.321 43.1329 287.571 44.3256 287.514 45.9246C287.456 47.685 286.998 49.0496 286.144 50.0131C285.29 50.9819 283.961 51.8152 282.159 52.5235C277.086 54.5027 272.857 56.659 269.467 58.9923C266.076 61.3256 264.336 63.7058 264.258 66.1433C264.201 67.6746 264.873 68.961 266.264 70.0027C267.67 71.0496 269.774 71.6173 272.581 71.7162C275.659 71.8204 278.81 71.1537 282.04 69.7162C285.264 68.2787 288.191 66.0392 290.826 62.9923C291.514 62.2475 292.269 61.8933 293.102 61.9194Z" stroke="#F6D776" stroke-width="21.6904"/>
<path d="M292.748 81.4664C289.347 81.1695 286.732 79.706 284.909 77.0602C283.097 74.4195 282.368 71.0966 282.712 67.0914C283.092 62.6956 284.467 58.6227 286.831 54.8727C289.206 51.1227 292.186 48.2008 295.769 46.1123C299.352 44.0185 303.04 43.1331 306.831 43.4664C308.034 43.5706 308.821 43.8727 309.18 44.3779C309.555 44.8831 309.831 45.7477 310.008 46.9768C311.18 46.8518 312.399 46.8414 313.654 46.9508C316.352 47.1852 317.613 48.2633 317.446 50.1956C317.347 51.3466 316.691 54.0497 315.488 58.305C313.68 64.5081 312.67 68.8466 312.456 71.3258C312.389 72.1435 312.54 72.8206 312.909 73.3518C313.284 73.8831 313.795 74.1747 314.451 74.232C315.498 74.3258 316.816 73.7633 318.404 72.5497C320.008 71.3258 322.201 69.3154 324.982 66.5185C325.706 65.8102 326.482 65.4977 327.311 65.5654C328.024 65.6279 328.55 66.0029 328.894 66.6956C329.253 67.3883 329.383 68.3102 329.284 69.4612C329.092 71.6591 328.43 73.3154 327.295 74.4352C324.8 77.0393 322.206 79.1904 319.508 80.8883C316.821 82.5862 314.3 83.331 311.941 83.1279C310.133 82.9716 308.524 82.2112 307.118 80.8466C305.712 79.482 304.717 77.6956 304.139 75.4872C300.889 79.8518 297.087 81.8414 292.748 81.4664ZM296.441 73.4247C297.649 73.5289 298.863 72.9195 300.081 71.5914C301.305 70.2529 302.269 68.4247 302.967 66.1122L307.316 51.2216C305.003 51.0758 302.8 51.7529 300.696 53.2581C298.607 54.7685 296.873 56.8414 295.482 59.4925C294.092 62.1383 293.264 64.9925 292.998 68.0654C292.852 69.7633 293.081 71.0602 293.691 71.9508C294.321 72.8258 295.238 73.3206 296.441 73.4247Z" stroke="#F6D776" stroke-width="21.6904"/>
<path d="M73.8526 85.3992C74.5297 84.8158 75.1286 84.4408 75.6443 84.2742C76.488 84.0137 77.2276 84.1283 77.8526 84.6283C78.4776 85.1283 78.9464 85.8731 79.2693 86.8575C79.7797 88.4304 79.8318 89.8887 79.4151 91.2325C79.0089 92.5815 78.0453 93.9981 76.5193 95.4825C73.8943 97.9408 70.2536 100.41 65.6026 102.878C60.962 105.337 56.2537 107.337 51.4776 108.878C44.863 111.019 39.0922 112.061 34.1651 112.003C29.2328 111.951 25.2536 110.962 22.2276 109.045C19.1964 107.118 17.1599 104.498 16.1026 101.191C14.6443 96.6908 14.863 92.3887 16.7484 88.2742C18.6234 84.1648 22.1651 80.4825 27.3734 77.2325C23.9828 77.3575 21.1026 76.5606 18.7276 74.8367C16.3422 73.1179 14.7016 70.8679 13.8109 68.0867C12.5922 64.3106 12.7016 60.5867 14.1443 56.92C15.5922 53.2429 18.0714 49.9617 21.5818 47.0867C25.1078 44.2012 29.2797 41.9773 34.1026 40.42C40.613 38.3106 45.9464 38.1387 50.1026 39.8992C54.2693 41.6492 57.0661 44.7481 58.4984 49.1908C59.4984 52.2898 59.738 54.9773 59.2276 57.2533C58.7276 59.5346 57.4359 61.0137 55.3526 61.6908C53.8787 62.1648 52.613 62.2117 51.5609 61.8367C50.5037 61.4512 49.7693 60.5971 49.3526 59.2742C49.0609 58.3887 48.863 57.3783 48.7693 56.2533C48.4776 54.4356 48.2276 53.2064 48.0193 52.5658C47.4203 50.6908 46.2276 49.3939 44.4359 48.67C42.6443 47.9512 40.0922 48.1231 36.7901 49.1908C32.3318 50.6387 29.0714 52.7325 27.0193 55.4825C24.962 58.2325 24.4464 61.2064 25.4776 64.3992C26.2693 66.8575 27.9255 68.5606 30.4568 69.5033C32.9984 70.4512 36.5662 70.2689 41.1651 68.9617C42.3422 68.6439 43.2484 68.6439 43.8734 68.9617C44.4984 69.2689 44.988 69.9721 45.3526 71.0658C46.4776 74.5398 45.4672 76.8054 42.3318 77.8575C38.0089 79.3887 34.6026 81.1648 32.1026 83.1908C29.6026 85.2221 27.9828 87.2898 27.2484 89.3992C26.5245 91.5137 26.4776 93.5398 27.1026 95.4825C28.1547 98.7325 30.4672 100.691 34.0401 101.357C37.6078 102.024 42.6964 101.29 49.3109 99.1492C53.6547 97.7481 58.087 95.7533 62.6026 93.17C67.113 90.5762 70.863 87.9825 73.8526 85.3992Z" fill="#6D4620"/>
<path d="M73.7034 56.58C71.4638 57.1633 69.6565 57.0904 68.2659 56.3508C66.8648 55.6008 65.9221 54.3039 65.4325 52.455C64.9482 50.58 65.2763 48.8248 66.4117 47.1842C67.5367 45.5487 69.1982 44.4342 71.3909 43.8508C73.3492 43.3404 75.0627 43.4029 76.5367 44.0383C78.0211 44.6633 79.0002 45.8508 79.4742 47.6008C80.0419 49.7414 79.7919 51.6217 78.7242 53.2467C77.6669 54.8612 75.995 55.9706 73.7034 56.58ZM84.4117 99.6425C80.9377 100.559 78.0888 99.9967 75.87 97.955C73.6617 95.9133 72.0211 92.8717 70.9534 88.83C70.3179 86.4289 69.8179 83.2779 69.4534 79.3717C69.0784 75.455 68.9325 71.7467 69.0159 68.2467C69.0471 66.4133 69.3804 65.0748 70.0159 64.2258C70.6409 63.3664 71.8336 62.705 73.5992 62.2467C76.3075 61.5279 77.8961 62.0748 78.37 63.8925C78.7294 65.2258 79.0419 68.455 79.3075 73.58C79.5679 79.7623 79.9794 83.8925 80.5367 85.9758C80.9534 87.5748 81.4846 88.7467 82.1409 89.4967C82.8075 90.2362 83.6409 90.4654 84.6409 90.1842C85.5992 89.9342 86.62 88.9498 87.7034 87.2258C88.7971 85.5071 90.1617 82.9029 91.7867 79.4133C92.2294 78.4967 92.8492 77.9342 93.6409 77.7258C94.3492 77.5331 94.9794 77.705 95.5367 78.2467C96.1044 78.7779 96.5419 79.5956 96.8492 80.705C97.4013 82.8456 97.3336 84.6321 96.6409 86.0592C93.0575 93.9081 88.9794 98.4342 84.4117 99.6425Z" fill="#6D4620"/>
<path d="M124.568 64.1919C124.703 64.0981 124.964 64.0044 125.339 63.9211C126.157 63.744 126.839 63.8742 127.381 64.3169C127.922 64.7648 128.297 65.4419 128.506 66.3586C128.881 68.0252 128.844 69.4002 128.401 70.4836C127.969 71.5669 127.162 72.4783 125.985 73.2127C123.677 74.5617 121.131 75.5461 118.339 76.1711C115.974 76.7023 113.677 76.8742 111.443 76.6919C110.443 79.5825 109.302 82.5773 108.026 85.6711C106.552 89.2283 105.162 91.7492 103.86 93.2336C102.552 94.7075 100.907 95.6658 98.9222 96.1086C96.7139 96.5981 94.7816 96.1242 93.1306 94.6919C91.49 93.2492 90.0941 90.7023 88.9431 87.0461C86.6097 79.6867 84.8129 73.1867 83.5472 67.5461L82.9222 64.7127C82.5785 62.9211 82.7868 61.5773 83.5472 60.6711C84.3129 59.77 85.6097 59.119 87.4431 58.7127C88.8285 58.395 89.9275 58.4731 90.7347 58.9419C91.5525 59.4002 92.1202 60.3586 92.4431 61.8169C93.8181 67.9992 95.99 75.9523 98.9639 85.6711C101.131 80.1711 102.698 75.8169 103.672 72.6086C102.506 71.2336 101.677 69.4627 101.193 67.2961C100.787 65.4783 100.797 63.6242 101.214 61.7336C101.631 59.8325 102.412 58.1867 103.568 56.7961C104.735 55.4106 106.203 54.5148 107.985 54.1086C109.537 53.7648 110.922 54.0356 112.131 54.9211C113.349 55.7961 114.198 57.2856 114.672 59.3794C115.214 61.8117 115.183 64.7283 114.589 68.1294C116.615 67.5617 119.24 66.5461 122.464 65.0877L124.568 64.1919Z" fill="#6D4620"/>
<path d="M123.135 69.7328C121.854 70.0661 120.745 69.8734 119.802 69.1495C118.87 68.4151 118.265 67.2641 117.989 65.6911C117.739 64.2224 117.916 63.0661 118.531 62.2328C119.14 61.3995 120.14 60.8109 121.531 60.462L137.948 55.962C139.281 55.6182 140.385 55.7745 141.26 56.4411C142.135 57.0974 142.703 58.1859 142.969 59.712C143.469 62.6443 142.328 64.4828 139.552 65.2328L123.135 69.7328Z" fill="#6D4620"/>
<path d="M225.909 59.4814C226.617 59.4137 227.206 59.6897 227.68 60.3147C228.164 60.9293 228.456 61.8095 228.555 62.9605C228.763 65.1012 228.393 66.8512 227.45 68.2105C225.127 71.6272 222.7 74.3303 220.159 76.3147C217.627 78.3043 214.539 79.4605 210.888 79.7939C207.315 80.1272 204.19 79.4553 201.513 77.773C198.831 76.0803 196.148 73.0126 193.471 68.5647C191.315 64.997 189.638 62.372 188.43 60.6897C187.221 59.0126 186.065 57.8355 184.971 57.1689C183.888 56.4918 182.596 56.1376 181.096 56.1064C180.982 57.273 180.7 60.9501 180.242 67.1272C180.044 69.9085 179.919 71.6064 179.867 72.2314C179.627 75.6376 178.768 78.3095 177.284 80.2522C175.81 82.1845 173.398 83.3043 170.055 83.6064C166.388 83.9553 163.039 83.1793 160.013 81.273C156.982 79.372 154.518 76.5595 152.617 72.8355C150.726 69.1168 149.544 64.7835 149.075 59.8355C148.211 50.6272 149.075 42.5335 151.659 35.5439C154.242 28.5439 158.263 23.0126 163.721 18.9397C169.18 14.872 175.69 12.4814 183.263 11.773C188.523 11.273 193.013 11.6585 196.721 12.9189C200.44 14.1689 203.294 16.1168 205.284 18.7522C207.268 21.3772 208.419 24.4501 208.742 27.9605C209.034 31.0335 208.586 34.1064 207.409 37.1897C206.242 40.2626 204.31 43.0595 201.617 45.5855C198.919 48.1012 195.534 50.096 191.45 51.5647C194.159 52.0387 196.294 53.0022 197.867 54.4605C199.435 55.9189 201.081 58.1168 202.805 61.0439C204.638 64.2001 206.377 66.4762 208.034 67.8772C209.685 69.2678 211.502 69.8668 213.492 69.6689C215.242 69.5178 216.851 68.773 218.325 67.4397C219.81 66.1064 221.638 63.9085 223.805 60.8355C224.372 60.0022 225.075 59.5543 225.909 59.4814ZM169.763 57.0855C167.888 57.2522 166.565 56.9345 165.805 56.1272C165.039 55.3095 164.601 54.346 164.492 53.2314C164.377 51.9293 164.706 50.8512 165.471 50.0022C166.247 49.1585 167.185 48.6845 168.284 48.5855L170.325 48.3772C170.7 42.9501 171.096 38.2418 171.513 34.2522C171.898 30.6168 174.034 28.6168 177.909 28.2522C181.034 27.9605 182.726 29.2105 182.992 32.0022C183.044 32.6168 183.06 33.096 183.034 33.4397L181.846 47.3147C184.789 46.872 187.419 45.9085 189.742 44.4189C192.075 42.9345 193.867 40.997 195.117 38.6064C196.367 36.221 196.857 33.596 196.596 30.7314C196.273 27.2887 194.836 24.6897 192.284 22.9397C189.726 21.1897 186.18 20.5335 181.638 20.9605C176.263 21.4605 171.685 23.2314 167.909 26.273C164.127 29.3043 161.351 33.5439 159.575 39.0022C157.81 44.4501 157.284 50.9293 157.992 58.4397C158.31 61.9397 158.95 64.9189 159.909 67.3772C160.867 69.8355 161.919 71.648 163.075 72.8147C164.226 73.9814 165.273 74.523 166.221 74.4397C166.93 74.372 167.482 73.9553 167.888 73.1897C168.289 72.4293 168.544 71.247 168.659 69.648L169.763 57.0855Z" fill="#6D4620"/>
<path d="M256.41 60.5689C257.129 60.5689 257.702 60.897 258.119 61.5481C258.535 62.2043 258.749 63.1054 258.764 64.2564C258.806 66.4647 258.311 68.1835 257.285 69.4022C255.285 71.9022 252.436 74.2304 248.744 76.3814C245.061 78.5377 241.098 79.6418 236.848 79.7147C231.066 79.7981 226.556 78.2981 223.306 75.2147C220.066 72.121 218.415 67.8397 218.348 62.3814C218.275 58.5793 219.014 55.0272 220.556 51.7356C222.108 48.4335 224.29 45.7929 227.098 43.8189C229.9 41.8502 233.098 40.8345 236.681 40.7772C239.874 40.7356 242.452 41.6522 244.41 43.5272C246.369 45.3918 247.374 47.9439 247.431 51.1939C247.483 55.0012 246.165 58.2929 243.473 61.0689C240.79 63.8345 236.212 66.0637 229.744 67.7564C231.145 70.2564 233.775 71.4804 237.639 71.4231C240.108 71.3814 242.921 70.4752 246.077 68.6939C249.228 66.9022 251.931 64.5897 254.181 61.7564C254.848 60.9804 255.587 60.5845 256.41 60.5689ZM235.41 48.9022C233.369 48.9439 231.66 50.1627 230.285 52.5481C228.921 54.9387 228.27 57.8137 228.327 61.1731V61.3189C231.561 60.5012 234.103 59.3085 235.952 57.7356C237.796 56.1679 238.702 54.3606 238.66 52.3189C238.645 51.2772 238.348 50.4439 237.764 49.8189C237.181 49.1939 236.395 48.8918 235.41 48.9022Z" fill="#6D4620"/>
<path d="M293.084 61.9288C293.803 61.96 294.36 62.3038 294.751 62.9704C295.136 63.6371 295.313 64.5486 295.272 65.6996C295.199 67.7413 294.626 69.4288 293.542 70.7621C290.834 74.0434 287.527 76.5746 283.626 78.3663C279.735 80.1579 275.397 80.9704 270.605 80.8038C266.865 80.6788 263.647 80.0017 260.938 78.7829C258.23 77.5746 256.173 75.9652 254.772 73.9496C253.381 71.9392 252.73 69.7204 252.813 67.3038C252.938 63.6684 254.506 60.5017 257.522 57.8038C260.532 55.1111 264.803 52.5538 270.334 50.1371L256.792 50.0121C255.584 50.0277 254.673 49.5694 254.063 48.6371C253.464 47.71 253.188 46.6111 253.23 45.3454C253.272 44.0277 253.626 42.8663 254.292 41.8663C254.959 40.8663 255.844 40.3871 256.959 40.4288C259.485 40.5121 262.855 40.8194 267.063 41.3454C267.949 41.4444 269.563 41.6111 271.897 41.8454C274.24 42.085 276.214 42.2309 277.813 42.2829C278.365 42.2986 279.423 42.1163 280.98 41.7413C281.256 41.6996 281.798 41.585 282.605 41.3871C283.407 41.1944 284.084 41.1059 284.626 41.1163C285.511 41.1475 286.23 41.5538 286.772 42.3454C287.324 43.1371 287.574 44.335 287.522 45.9288C287.464 47.6944 287.006 49.0642 286.147 50.0329C285.282 50.9913 283.959 51.8246 282.167 52.5329C277.084 54.5069 272.844 56.6579 269.459 58.9913C266.084 61.3246 264.355 63.6996 264.272 66.1163C264.214 67.6579 264.881 68.9496 266.272 69.9913C267.657 71.0329 269.761 71.6059 272.584 71.6996C275.667 71.8142 278.818 71.1527 282.042 69.7204C285.261 68.2777 288.188 66.0277 290.813 62.9704C291.506 62.2517 292.261 61.9027 293.084 61.9288Z" fill="#6D4620"/>
<path d="M292.735 81.4712C289.329 81.1796 286.719 79.716 284.902 77.0754C283.094 74.4244 282.365 71.091 282.714 67.0754C283.089 62.7004 284.454 58.6379 286.818 54.8879C289.193 51.1379 292.172 48.216 295.756 46.1171C299.35 44.0233 303.047 43.1379 306.839 43.4712C308.032 43.5702 308.818 43.8775 309.193 44.3879C309.568 44.8879 309.839 45.7525 310.006 46.9712C311.183 46.8619 312.402 46.8567 313.652 46.9504C316.344 47.19 317.61 48.2733 317.443 50.2004C317.344 51.3567 316.698 54.0546 315.506 58.3046C313.683 64.5129 312.662 68.8567 312.443 71.3254C312.37 72.1483 312.527 72.8254 312.902 73.3671C313.277 73.8983 313.797 74.19 314.464 74.2421C315.49 74.341 316.803 73.7785 318.402 72.5546C320.011 71.3202 322.214 69.3046 325.006 66.5129C325.714 65.8046 326.485 65.4869 327.318 65.5546C328.011 65.6275 328.537 66.0077 328.902 66.7004C329.261 67.3983 329.391 68.3202 329.297 69.4712C329.1 71.6692 328.428 73.3202 327.277 74.4296C324.787 77.0285 322.198 79.1796 319.506 80.8879C316.808 82.5962 314.282 83.3462 311.922 83.1379C310.115 82.9817 308.511 82.2212 307.11 80.8462C305.704 79.4869 304.719 77.7004 304.152 75.4921C300.886 79.8671 297.079 81.8567 292.735 81.4712ZM296.443 73.4087C297.652 73.5077 298.865 72.8983 300.089 71.5754C301.308 70.2421 302.266 68.4192 302.964 66.0962L307.297 51.2421C305.006 51.091 302.808 51.7733 300.714 53.2837C298.615 54.7837 296.87 56.8567 295.485 59.4921C294.11 62.1327 293.287 64.9869 293.027 68.0546C292.87 69.7629 293.1 71.0546 293.714 71.9296C294.323 72.8046 295.235 73.2994 296.443 73.4087Z" fill="#6D4620"/>
</svg>
